Coordinates
version=1
nRows=4
nColumns=107
inDegrees=yes

Units are S.I. units (second, meters, Newtons, ...)
If the header above contains a line with 'inDegrees', this indicates whether rotational values are in degrees (yes) or radians (no).

endheader
time	sternoclavicular_r2	sternoclavicular_r3	unrotscap_r3	unrotscap_r2	acromioclavicular_r2	acromioclavicular_r3	acromioclavicular_r1	unrothum_r1	unrothum_r3	unrothum_r2	elv_angle	shoulder_elv	shoulder1_r2	shoulder_rot	elbow_flexion	pro_sup	deviation	flexion	proximal_distal_r1	proximal_distal_r3	cmc_flexion	cmc_abduction	mp_flexion	ip_flexion	mcp2_flexion	mcp2_abduction	pm2_flexion	md2_flexion	mcp3_flexion	mcp3_abduction	pm3_flexion	md3_flexion	mcp4_flexion	mcp4_abduction	pm4_flexion	md4_flexion	mcp5_flexion	mcp5_abduction	pm5_flexion	md5_flexion	bicpt_tx	bicpt_ty	bicpt_tz	bicpt2_tx	bicpt2_ty	bicpt2_tz	ptpt_tx	ptpt_ty	ptpt_tz	FCUpt_tx	FCUpt_ty	FCUpt_tz	EDCpt_tx	EDCpt_ty	EDCpt_tz	APLpt_tx	APLpt_ty	APLpt_tz	FPLpt_tx	FPLpt_ty	FPLpt_tz	FPLpt2_tx	FPLpt2_ty	FPLpt2_tz	PEC1pt2_tx	PEC1pt2_ty	PEC1pt2_tz	PEC1pt3_tx	PEC1pt3_ty	PEC1pt3_tz	PEC2pt2_tx	PEC2pt2_ty	PEC2pt2_tz	PEC2pt3_tx	PEC2pt3_ty	PEC2pt3_tz	PEC3pt2_tx	PEC3pt2_ty	PEC3pt2_tz	PEC3pt3_tx	PEC3pt3_ty	PEC3pt3_tz	DELT2pt2a_tx	DELT2pt2a_ty	DELT2pt2a_tz	DELT2pt2_tx	DELT2pt2_ty	DELT2pt2_tz	LAT1pt2_tx	LAT1pt2_ty	LAT1pt2_tz	LAT1pt3_tx	LAT1pt3_ty	LAT1pt3_tz	LAT2pt2_tx	LAT2pt2_ty	LAT2pt2_tz	LAT2pt3_tx	LAT2pt3_ty	LAT2pt3_tz	LAT3pt2_tx	LAT3pt2_ty	LAT3pt2_tz	LAT3pt3_tx	LAT3pt3_ty	LAT3pt3_tz
      0.93333333	     -0.31352138	      0.13279286	     -0.13279286	      0.31352138	     -0.06348170	      0.51303678	      0.23060650	     -0.23060650	     -0.51303678	      0.06348170	    100.59370332	     74.22897336	     -1.75569133	    -35.20088302	     32.31355718	     79.68982311	      0.34499118	     -0.47839443	      0.37078394	     -0.23919721	     41.35740021	    -12.99190217	     -0.82747351	      7.31948163	     92.94219410	     13.10818204	     80.00574336	     71.25936698	     90.15060843	      2.24809827	     82.80155625	     55.78551667	     88.71016478	    -13.09589186	     92.97138890	     45.44355972	     85.66830741	    -14.12503863	     98.37968384	      5.35675791	      0.00096883	     -0.03130363	     -0.00489656	      0.01484664	     -0.01897814	     -0.00212874	      0.00166182	     -0.06870739	     -0.00646944	      0.01201926	     -0.18244577	     -0.00007501	     -0.00956276	      0.00323788	     -0.00056539	      0.00029780	      0.00011912	      0.00059561	      0.00038119	      0.00114357	      0.00064326	     -0.00000852	     -0.00008369	     -0.00010043	      0.00243306	      0.00853634	      0.00593832	     -0.00795900	      0.01921707	     -0.01822735	      0.00243306	      0.00853634	      0.00593832	      0.00053610	      0.01781497	     -0.00936111	      0.00387389	      0.00474695	      0.01578378	      0.00000000	      0.00736624	      0.00000000	     -0.00696928	     -0.03220715	     -0.00607139	      0.02100269	     -0.00093822	     -0.01018712	     -0.00086601	      0.01451590	     -0.00593832	      0.00239182	      0.02094908	     -0.01732011	     -0.00581461	      0.01257770	     -0.00531975	     -0.01212408	      0.02655750	     -0.02973285	     -0.02276357	      0.01406228	     -0.00713424	     -0.01509324	      0.03068133	     -0.03715576
      0.96666667	     -0.31171469	      0.13202763	     -0.13202763	      0.31171469	     -0.06311588	      0.51008037	      0.22927762	     -0.22927762	     -0.51008037	      0.06311588	    101.34026321	     73.80122369	     -1.76872126	    -37.83242376	     32.12489555	     80.46853656	      0.28696449	     -0.59991136	      0.32204833	     -0.29995568	     41.09704041	    -12.64229911	     -2.54909452	      6.04485693	     89.96227602	     13.21015158	     77.92105341	     71.22423007	     87.74305989	      2.82300239	     81.71851839	     55.74549993	     85.80244593	    -12.91630834	     91.67131405	     45.20989122	     82.13579724	    -14.09817376	     97.48486655	      5.38198678	      0.00096259	     -0.03128200	     -0.00489307	      0.01477669	     -0.01892689	     -0.00200185	      0.00160428	     -0.06874460	     -0.00653217	      0.01210729	     -0.18242071	     -0.00005704	     -0.00965620	      0.00327919	     -0.00058789	      0.00031240	      0.00012496	      0.00062480	      0.00039987	      0.00119962	      0.00067479	     -0.00000894	     -0.00008911	     -0.00010693	      0.00241904	      0.00848715	      0.00590410	     -0.00791314	      0.01910633	     -0.01812232	      0.00241904	      0.00848715	      0.00590410	      0.00053301	      0.01771231	     -0.00930716	      0.00385736	      0.00471960	      0.01574197	      0.00000000	      0.00728106	      0.00000000	     -0.00692912	     -0.03202156	     -0.00600062	      0.02193996	     -0.00103231	     -0.01165631	     -0.00086102	      0.01443225	     -0.00590410	      0.00237804	      0.02082836	     -0.01722030	     -0.00578110	      0.01250522	     -0.00528909	     -0.01205421	      0.02640446	     -0.02956152	     -0.02263239	      0.01398124	     -0.00709312	     -0.01500626	      0.03050453	     -0.03694164
      1.00000000	     -0.31522452	      0.13351423	     -0.13351423	      0.31522452	     -0.06382655	      0.51582375	      0.23185922	     -0.23185922	     -0.51582375	      0.06382655	    100.10919882	     74.63220629	     -1.74723513	    -32.68897845	     32.15496507	     76.65277861	      0.31833076	     -0.52833852	      0.34907709	     -0.26416926	     40.54098002	    -12.67519167	     -4.85714041	      5.64695391	     84.79734734	     13.28001670	     76.14065921	     69.99026296	     83.35565642	      3.64219029	     81.08560368	     54.25268468	     81.34021173	    -12.63417404	     89.37673481	     45.54777611	     76.95394768	    -14.07221332	     95.55014396	      5.43972409	      0.00096359	     -0.03128545	     -0.00489363	      0.01510620	     -0.01893505	     -0.00261550	      0.00188622	     -0.06856229	     -0.00622479	      0.01167771	     -0.18254187	     -0.00014076	     -0.00919831	      0.00307855	     -0.00048075	      0.00030683	      0.00012273	      0.00061366	      0.00039274	      0.00117823	      0.00066275	     -0.00000977	     -0.00010044	     -0.00012052	      0.00244628	      0.00858271	      0.00597058	     -0.00800224	      0.01932147	     -0.01832637	      0.00244628	      0.00858271	      0.00597058	      0.00053901	      0.01791174	     -0.00941196	      0.00388941	      0.00477274	      0.01582278	      0.00000000	      0.00744701	      0.00000000	     -0.00700714	     -0.03238211	     -0.00613847	      0.02002169	     -0.00084987	     -0.00885090	     -0.00087071	      0.01459475	     -0.00597058	      0.00240482	      0.02106288	     -0.01741420	     -0.00584619	      0.01264602	     -0.00534865	     -0.01218994	      0.02670177	     -0.02989437	     -0.02288723	      0.01413867	     -0.00717299	     -0.01517523	      0.03084800	     -0.03735760
      1.03333333	     -0.31532322	      0.13355603	     -0.13355603	      0.31532322	     -0.06384654	      0.51598526	      0.23193182	     -0.23193182	     -0.51598526	      0.06384654	    100.00431809	     74.65557455	     -1.74540462	    -32.18478592	     32.32608987	     75.74169070	      0.30020931	     -0.54064904	      0.33365785	     -0.27032452	     39.81988821	    -12.34660152	     -6.49308449	      5.30713468	     79.22117388	     13.40727873	     72.65273046	     68.81845037	     78.39074921	      4.77429754	     79.10908424	     53.75842516	     75.92583841	    -12.12268402	     86.58628664	     45.23193542	     70.48297744	    -14.03645728	     93.30168927	      5.47794347	      0.00096925	     -0.03130506	     -0.00489679	      0.01517992	     -0.01898154	     -0.00275898	      0.00195354	     -0.06851876	     -0.00615140	      0.01157581	     -0.18257018	     -0.00015912	     -0.00908898	      0.00303131	     -0.00045634	      0.00030837	      0.00012335	      0.00061674	      0.00039472	      0.00118415	      0.00066608	     -0.00001069	     -0.00011460	     -0.00013751	      0.00244705	      0.00858540	      0.00597245	     -0.00800474	      0.01932752	     -0.01833211	      0.00244705	      0.00858540	      0.00597245	      0.00053918	      0.01791735	     -0.00941491	      0.00389031	      0.00477423	      0.01582503	      0.00000000	      0.00745171	      0.00000000	     -0.00700933	     -0.03239225	     -0.00614237	      0.01981461	     -0.00083233	     -0.00859101	     -0.00087098	      0.01459932	     -0.00597245	      0.00240557	      0.02106948	     -0.01741965	     -0.00584802	      0.01264998	     -0.00535032	     -0.01219375	      0.02671013	     -0.02990373	     -0.02289440	      0.01414310	     -0.00717524	     -0.01517998	      0.03085766	     -0.03736929
